<!DOCTYPE svg PUBLIC "-//W3C//DTD SVG 1.1//EN" "http://www.w3.org/Graphics/SVG/1.1/DTD/svg11.dtd">
<!-- Uploaded to: SVG Repo, www.svgrepo.com, Transformed by: SVG Repo Mixer Tools -->
<svg fill="#000000" width="256px" height="256px" viewBox="0 0 24 24" id="cd-music" data-name="Flat Color" xmlns="http://www.w3.org/2000/svg" class="icon flat-color">
<g id="SVGRepo_bgCarrier" stroke-width="0"/>
<g id="SVGRepo_tracerCarrier" stroke-linecap="round" stroke-linejoin="round"/>
<g id="SVGRepo_iconCarrier">
<path id="primary" d="M19.93,9.87a1,1,0,0,1-1,1.13H14a2,2,0,0,0-2,2v6a1,1,0,0,1-1,1,9,9,0,0,1-9-9.26A9.12,9.12,0,0,1,10.74,2,9,9,0,0,1,19.93,9.87Z" style="fill: #ffffff;"/>
<path id="secondary" d="M22,13a1,1,0,0,1-1,1H19v5a3,3,0,1,1-2-2.82V13a1,1,0,0,1,1-1h3A1,1,0,0,1,22,13ZM11,8a3,3,0,1,0,3,3A3,3,0,0,0,11,8Z" style="fill: #fb6b84;"/>
</g>
</svg>